<?xml version="1.0" encoding="UTF-8" standalone="no"?>
<svg width="60px" height="60px" viewBox="0 0 60 60" version="1.1" xmlns="http://www.w3.org/2000/svg" xmlns:xlink="http://www.w3.org/1999/xlink" xmlns:sketch="http://www.bohemiancoding.com/sketch/ns">
    <!-- Generator: Sketch 3.2.2 (9983) - http://www.bohemiancoding.com/sketch -->
    <title>Cooker</title>
    <desc>Created with Sketch.</desc>
    <defs></defs>
    <g id="stroked" stroke="none" stroke-width="1" fill="none" fill-rule="evenodd" sketch:type="MSPage">
        <g id="Kitchen" sketch:type="MSLayerGroup" transform="translate(-487.000000, -478.000000)" stroke="#8bc8db" stroke-width="2" stroke-linecap="round" stroke-linejoin="round">
            <g id="Cooker" transform="translate(500.000000, 480.000000)" sketch:type="MSShapeGroup">
                <path d="M9.34105665,7.40104824 C8.6090577,7.1413521 7.82103613,7 7,7 C3.13400675,7 0,10.1340068 0,14 C0,16.9428612 1.81600613,19.4615715 4.38851405,20.4966265 L6,35 L31,35 L32.6114859,20.4966265 C35.1839939,19.4615715 37,16.9428612 37,14 C37,10.1340068 33.8659932,7 30,7 C29.5155648,7 29.0426232,7.04920951 28.5859011,7.14290246 C27.3565596,3.01218068 23.530046,0 19,0 C14.3761072,0 10.4851983,3.1382772 9.34105665,7.40104824 Z" id="Rectangle-715"></path>
                <path d="M8,11 C6.34314575,11 5,12.3431458 5,14" id="Oval-664"></path>
                <path d="M18,5 C16.3431458,5 15,6.34314575 15,8" id="Oval-664"></path>
                <path d="M29,11 C27.3431458,11 26,12.3431458 26,14" id="Oval-664"></path>
                <circle id="Oval-664" cx="13.5" cy="41.5" r="1.5"></circle>
                <circle id="Oval-665" cx="23.5" cy="41.5" r="1.5"></circle>
                <path d="M15.0368198,47.0212449 C13.0503163,49.5622749 10.5459916,50.831009 7.07062802,50.831009 C4.61097777,50.831009 2.31639342,50.0128302 0.496247617,48.633785 C2.20240076,52.3918858 5.98806743,56 10.3841705,56 C13.7781364,56 16.5305164,55.4379947 18.5207609,52.9983863 C20.5110053,55.4379947 23.8188617,56 27.2128276,56 C31.6089307,56 35.8826772,52.3918857 37.5888303,48.633785 C35.7686845,50.0128302 32.4884582,50.831009 30.028808,50.831009 C26.5534444,50.831009 23.8982842,49.5622749 21.9117807,47.0212449 L15.0368198,47.0212449 Z" id="Oval-666"></path>
            </g>
        </g>
    </g>
</svg>